<svg width="420" height="381" viewBox="0 0 610 381" fill="none" xmlns="http://www.w3.org/2000/svg">
<path d="M483 104.006C567.76 104.927 720.236 104.204 752.075 104.038C755.402 104.02 758 106.713 758 110.04V332.761C758 335.79 756.217 338.285 753.211 338.653C690.554 346.322 39.9625 424.953 405.822 338.064C789.933 246.841 388.017 102.973 483 104.006Z" fill="url(#paint0_linear)"/>
<path d="M483 104.006C567.76 104.927 720.236 104.204 752.075 104.038C755.402 104.02 758 106.713 758 110.04V332.761C758 335.79 756.217 338.285 753.211 338.653C690.554 346.322 39.9625 424.953 405.822 338.064C789.933 246.841 388.017 102.973 483 104.006Z" fill="url(#paint1_linear)"/>
<path d="M459.156 104.011C543.916 104.932 696.392 104.209 728.231 104.043C731.558 104.026 734.156 106.718 734.156 110.046V332.767C734.156 335.795 732.373 338.29 729.367 338.658C666.71 346.327 16.1185 424.958 381.978 338.069C766.089 246.846 364.173 102.978 459.156 104.011Z" fill="url(#paint2_linear)" fill-opacity="0.9"/>
<path d="M435.156 104.011C519.916 104.932 672.392 104.209 704.231 104.043C707.558 104.026 710.156 106.718 710.156 110.046V332.767C710.156 335.795 708.373 338.29 705.367 338.658C642.71 346.327 -7.88152 424.958 357.978 338.069C742.089 246.846 340.173 102.978 435.156 104.011Z" fill="url(#paint3_linear)" fill-opacity="0.7"/>
<path d="M413 104.505C497.75 105.427 650.324 104.31 682.214 104.059C685.548 104.033 688.156 106.728 688.156 110.062V332.767C688.156 335.795 686.373 338.29 683.367 338.658C620.71 346.327 -29.8815 424.958 335.978 338.069C720.089 246.846 318.018 103.473 413 104.505Z" fill="url(#paint4_linear)" fill-opacity="0.6"/>
<path d="M396 105.005C480.736 105.927 633.272 104.413 665.198 104.075C668.538 104.04 671.156 106.739 671.156 110.079V332.767C671.156 335.795 669.373 338.29 666.367 338.658C603.71 346.327 -46.8815 424.958 318.978 338.069C703.089 246.846 301.018 103.973 396 105.005Z" fill="url(#paint5_linear)" fill-opacity="0.5"/>
<path d="M275 378.613C190.24 377.692 37.7638 378.415 5.92509 378.581C2.59797 378.599 0 375.906 0 372.579V149.857C0 146.829 1.78259 144.334 4.78858 143.966C67.446 136.297 718.037 57.6662 352.178 144.555C-31.9338 235.778 369.982 379.646 275 378.613Z" fill="url(#paint6_linear)"/>
<path d="M275 378.613C190.24 377.692 37.7638 378.415 5.92509 378.581C2.59797 378.599 0 375.906 0 372.579V149.857C0 146.829 1.78259 144.334 4.78858 143.966C67.446 136.297 718.037 57.6662 352.178 144.555C-31.9338 235.778 369.982 379.646 275 378.613Z" fill="url(#paint7_linear)"/>
<path d="M298.844 378.608C214.084 377.686 61.6078 378.409 29.7691 378.576C26.442 378.593 23.844 375.9 23.844 372.573V149.852C23.844 146.823 25.6266 144.329 28.6326 143.961C91.29 136.292 741.881 57.6607 376.022 144.549C-8.08976 235.773 393.826 379.64 298.844 378.608Z" fill="url(#paint8_linear)" fill-opacity="0.9"/>
<path d="M322.844 378.608C238.084 377.686 85.6078 378.409 53.7691 378.576C50.442 378.593 47.844 375.9 47.844 372.573V149.852C47.844 146.823 49.6266 144.329 52.6326 143.961C115.29 136.292 765.881 57.6607 400.022 144.549C15.9102 235.773 417.826 379.64 322.844 378.608Z" fill="url(#paint9_linear)" fill-opacity="0.7"/>
<path d="M344.844 378.608C260.084 377.686 107.608 378.409 75.7691 378.576C72.442 378.593 69.844 375.9 69.844 372.573V149.852C69.844 146.823 71.6266 144.329 74.6326 143.961C137.29 136.292 787.881 57.6607 422.022 144.549C37.9102 235.773 439.826 379.64 344.844 378.608Z" fill="url(#paint10_linear)" fill-opacity="0.6"/>
<path d="M361.844 378.608C277.084 377.686 124.608 378.409 92.7691 378.576C89.442 378.593 86.844 375.9 86.844 372.573V149.852C86.844 146.823 88.6266 144.329 91.6326 143.961C154.29 136.292 804.881 57.6607 439.022 144.549C54.9102 235.773 456.826 379.64 361.844 378.608Z" fill="url(#paint11_linear)" fill-opacity="0.5"/>
<path d="M336.5 379.005L373.035 377.504" stroke="#3C444C"/>
<line x1="359" y1="378.505" x2="371" y2="378.505" stroke="#3C444C"/>
<line x1="375" y1="377.505" x2="373" y2="377.505" stroke="#3C444C"/>
<line x1="378" y1="104.505" x2="399" y2="104.505" stroke="#3C444C"/>
<path d="M384.5 105.005L414 104.005" stroke="#3C444C"/>
<path d="M334.996 231H330.376V229.72H332.116L331.176 227.22H325.616L324.616 229.72H326.496V231H321.916V229.72H323.136L327.396 219.28H325.316V218H329.016L333.676 229.72H334.996V231ZM330.756 226.08L328.516 220.12H328.396L326.056 226.08H330.756ZM346.145 231H341.645V229.86H343.185V225.72C343.185 224.76 342.992 224.087 342.605 223.7C342.219 223.3 341.725 223.1 341.125 223.1C340.325 223.1 339.679 223.367 339.185 223.9C338.705 224.42 338.452 225.02 338.425 225.7V229.86H339.985V231H335.465V229.86H337.025V223.24H335.425V222.1H338.425V223.68C339.065 222.507 340.105 221.92 341.545 221.92C342.412 221.92 343.139 222.187 343.725 222.72C344.312 223.253 344.605 224.113 344.605 225.3V229.86H346.145V231ZM357.03 231H354.09V229.2C353.797 229.733 353.397 230.2 352.89 230.6C352.383 231 351.723 231.2 350.91 231.2C349.763 231.2 348.837 230.813 348.13 230.04C347.437 229.253 347.09 228.167 347.09 226.78C347.09 225.593 347.397 224.487 348.01 223.46C348.623 222.433 349.657 221.92 351.11 221.92C352.497 221.92 353.49 222.46 354.09 223.54V218.38H351.93V217.24H355.49V229.86H357.03V231ZM354.09 227.06V225.64C354.063 224.893 353.79 224.287 353.27 223.82C352.75 223.353 352.137 223.12 351.43 223.12C350.443 223.12 349.717 223.48 349.25 224.2C348.797 224.92 348.57 225.747 348.57 226.68C348.57 227.773 348.823 228.6 349.33 229.16C349.85 229.72 350.497 230 351.27 230C352.07 230 352.73 229.68 353.25 229.04C353.783 228.387 354.063 227.727 354.09 227.06ZM369.827 219.28H368.387V227.68C368.387 228.853 368.093 229.733 367.507 230.32C366.92 230.907 366.1 231.2 365.047 231.2C364.193 231.2 363.507 231.02 362.987 230.66C362.48 230.287 362.087 229.807 361.807 229.22L362.867 228.42C363.147 228.967 363.447 229.34 363.767 229.54C364.1 229.727 364.487 229.82 364.927 229.82C365.633 229.82 366.14 229.627 366.447 229.24C366.767 228.853 366.927 228.333 366.927 227.68V219.28H364.347V218H369.827V219.28ZM379.6 226.54C379.6 227.887 379.2 229 378.4 229.88C377.6 230.76 376.513 231.2 375.14 231.2C373.793 231.2 372.733 230.773 371.96 229.92C371.2 229.067 370.82 227.967 370.82 226.62C370.82 225.327 371.193 224.22 371.94 223.3C372.687 222.367 373.78 221.9 375.22 221.9C376.673 221.9 377.767 222.36 378.5 223.28C379.233 224.187 379.6 225.273 379.6 226.54ZM378.12 226.52C378.12 225.507 377.86 224.687 377.34 224.06C376.833 223.42 376.113 223.1 375.18 223.1C374.247 223.1 373.527 223.427 373.02 224.08C372.527 224.733 372.28 225.553 372.28 226.54C372.28 227.513 372.527 228.333 373.02 229C373.513 229.667 374.233 230 375.18 230C376.127 230 376.853 229.673 377.36 229.02C377.867 228.353 378.12 227.52 378.12 226.52ZM382.434 219.8V217.98H383.954V219.8H382.434ZM385.534 231H381.014V229.86H382.574V223.24H380.974V222.1H383.974V229.86H385.534V231ZM397.219 231H392.719V229.86H394.259V225.72C394.259 224.76 394.066 224.087 393.679 223.7C393.293 223.3 392.799 223.1 392.199 223.1C391.399 223.1 390.753 223.367 390.259 223.9C389.779 224.42 389.526 225.02 389.499 225.7V229.86H391.059V231H386.539V229.86H388.099V223.24H386.499V222.1H389.499V223.68C390.139 222.507 391.179 221.92 392.619 221.92C393.486 221.92 394.213 222.187 394.799 222.72C395.386 223.253 395.679 224.113 395.679 225.3V229.86H397.219V231ZM413.564 221.96L412.264 222.06L411.864 219.28H408.504V229.72H410.804V231H404.804V229.72H407.044V219.28H403.684L403.284 222.06L402.004 221.96L402.384 218H413.164L413.564 221.96ZM425.006 231H420.486V229.86H422.046V225.72C422.046 224.76 421.846 224.087 421.446 223.7C421.06 223.3 420.56 223.1 419.946 223.1C419.173 223.1 418.54 223.367 418.046 223.9C417.566 224.42 417.313 225.007 417.286 225.66V229.86H418.826V231H414.326V229.86H415.866V218.38H414.326V217.24H417.286V223.7C417.94 222.513 418.98 221.92 420.406 221.92C421.273 221.92 422 222.187 422.586 222.72C423.173 223.253 423.466 224.113 423.466 225.3V229.86H425.006V231ZM433.878 228.44C433.758 229.2 433.378 229.853 432.738 230.4C432.098 230.933 431.231 231.2 430.138 231.2C428.884 231.2 427.871 230.807 427.098 230.02C426.324 229.233 425.938 228.12 425.938 226.68C425.938 225.293 426.304 224.153 427.038 223.26C427.771 222.367 428.764 221.92 430.018 221.92C431.244 221.92 432.178 222.307 432.818 223.08C433.458 223.853 433.784 224.767 433.798 225.82C433.798 226.167 433.758 226.52 433.678 226.88H427.418C427.498 228.96 428.438 230 430.238 230C430.944 230 431.498 229.833 431.898 229.5C432.298 229.167 432.564 228.727 432.698 228.18L433.878 228.44ZM432.318 225.84C432.384 225.173 432.224 224.547 431.838 223.96C431.464 223.373 430.844 223.08 429.978 223.08C429.151 223.08 428.544 223.353 428.158 223.9C427.771 224.447 427.531 225.093 427.438 225.84H432.318ZM318.095 243.74L316.775 243.88L316.375 241.28H311.335V246.34H317.315V247.62H311.335V251.72H313.635V253H308.235V251.72H309.875V241.28H308.235V240H317.675L318.095 243.74ZM320.647 241.8V239.98H322.167V241.8H320.647ZM323.747 253H319.227V251.86H320.787V245.24H319.187V244.1H322.187V251.86H323.747V253ZM331.472 250.6C331.232 252.333 330.292 253.2 328.652 253.2C327.759 253.2 327.072 252.947 326.592 252.44C326.126 251.933 325.892 251.247 325.892 250.38V245.22H324.452V244.1H325.892V241.24H327.292V244.1H330.772V245.22H327.292V250.2C327.292 250.733 327.406 251.167 327.632 251.5C327.872 251.82 328.259 251.98 328.792 251.98C329.139 251.98 329.459 251.873 329.752 251.66C330.059 251.447 330.279 250.98 330.412 250.26L331.472 250.6ZM342.274 243.74L340.954 243.88L340.554 241.28H335.514V246.34H341.494V247.62H335.514V251.72H337.814V253H332.414V251.72H334.054V241.28H332.414V240H341.854L342.274 243.74ZM353.647 253H350.647V251.32C350.367 251.88 349.953 252.333 349.407 252.68C348.873 253.027 348.253 253.2 347.547 253.2C346.68 253.2 345.947 252.933 345.347 252.4C344.76 251.853 344.467 250.987 344.467 249.8V245.24H342.907V244.1H345.867V249.4C345.867 250.36 346.067 251.033 346.467 251.42C346.867 251.807 347.38 252 348.007 252C348.767 252 349.387 251.713 349.867 251.14C350.36 250.567 350.62 249.96 350.647 249.32V245.24H348.787V244.1H352.047V251.86H353.647V253ZM361.258 250.6C361.018 252.333 360.078 253.2 358.438 253.2C357.544 253.2 356.858 252.947 356.378 252.44C355.911 251.933 355.678 251.247 355.678 250.38V245.22H354.238V244.1H355.678V241.24H357.078V244.1H360.558V245.22H357.078V250.2C357.078 250.733 357.191 251.167 357.418 251.5C357.658 251.82 358.044 251.98 358.578 251.98C358.924 251.98 359.244 251.873 359.538 251.66C359.844 251.447 360.064 250.98 360.198 250.26L361.258 250.6ZM372.279 253H369.279V251.32C368.999 251.88 368.586 252.333 368.039 252.68C367.506 253.027 366.886 253.2 366.179 253.2C365.313 253.2 364.579 252.933 363.979 252.4C363.393 251.853 363.099 250.987 363.099 249.8V245.24H361.539V244.1H364.499V249.4C364.499 250.36 364.699 251.033 365.099 251.42C365.499 251.807 366.013 252 366.639 252C367.399 252 368.019 251.713 368.499 251.14C368.993 250.567 369.253 249.96 369.279 249.32V245.24H367.419V244.1H370.679V251.86H372.279V253ZM378.25 243.94C378.89 243.94 379.397 244.093 379.77 244.4L380.11 246.64L378.97 246.78L378.63 245.26C378.404 245.18 378.177 245.14 377.95 245.14C377.43 245.14 376.997 245.36 376.65 245.8C376.304 246.227 376.13 246.787 376.13 247.48V251.86H378.19V253H373.17V251.86H374.73V245.24H373.13V244.1H376.05V245.7C376.224 245.207 376.504 244.793 376.89 244.46C377.29 244.113 377.744 243.94 378.25 243.94ZM389.669 250.44C389.549 251.2 389.169 251.853 388.529 252.4C387.889 252.933 387.022 253.2 385.929 253.2C384.675 253.2 383.662 252.807 382.889 252.02C382.115 251.233 381.729 250.12 381.729 248.68C381.729 247.293 382.095 246.153 382.829 245.26C383.562 244.367 384.555 243.92 385.809 243.92C387.035 243.92 387.969 244.307 388.609 245.08C389.249 245.853 389.575 246.767 389.589 247.82C389.589 248.167 389.549 248.52 389.469 248.88H383.209C383.289 250.96 384.229 252 386.029 252C386.735 252 387.289 251.833 387.689 251.5C388.089 251.167 388.355 250.727 388.489 250.18L389.669 250.44ZM388.109 247.84C388.175 247.173 388.015 246.547 387.629 245.96C387.255 245.373 386.635 245.08 385.769 245.08C384.942 245.08 384.335 245.353 383.949 245.9C383.562 246.447 383.322 247.093 383.229 247.84H388.109ZM405.595 243.74L404.275 243.88L403.875 241.28H398.835V246.34H404.815V247.62H398.835V251.72H401.135V253H395.735V251.72H397.375V241.28H395.735V240H405.175L405.595 243.74ZM407.413 244.78C407.88 244.473 408.373 244.253 408.893 244.12C409.413 243.987 409.966 243.92 410.553 243.92C412.673 243.92 413.733 244.913 413.733 246.9V251.14C413.733 251.78 413.986 252.1 414.493 252.1C414.72 252.1 414.92 252.06 415.093 251.98L415.113 252.9C414.753 253.1 414.366 253.2 413.953 253.2C412.9 253.2 412.36 252.6 412.333 251.4V251.36C412.053 251.84 411.653 252.267 411.133 252.64C410.626 253.013 410.013 253.2 409.293 253.2C408.706 253.2 408.106 253.02 407.493 252.66C406.893 252.3 406.593 251.647 406.593 250.7C406.593 249.58 407.033 248.847 407.913 248.5C408.806 248.14 409.753 247.96 410.753 247.96C411.02 247.96 411.286 247.967 411.553 247.98C411.833 247.993 412.093 248.013 412.333 248.04V247.24C412.333 246.6 412.193 246.08 411.913 245.68C411.646 245.28 411.113 245.08 410.313 245.08C409.66 245.08 409.086 245.2 408.593 245.44L408.253 246.98L407.093 246.84L407.413 244.78ZM412.333 249.66V248.98C412.08 248.967 411.813 248.947 411.533 248.92C411.253 248.893 410.966 248.88 410.673 248.88C410.006 248.88 409.4 248.987 408.853 249.2C408.32 249.4 408.053 249.847 408.053 250.54C408.053 251.113 408.233 251.507 408.593 251.72C408.953 251.933 409.326 252.04 409.713 252.04C410.326 252.04 410.9 251.827 411.433 251.4C411.98 250.973 412.28 250.393 412.333 249.66ZM432.541 253H428.281V251.86H429.581V247.72C429.581 246.76 429.388 246.087 429.001 245.7C428.628 245.3 428.148 245.1 427.561 245.1C426.748 245.1 426.121 245.407 425.681 246.02C425.241 246.633 425.014 247.22 425.001 247.78V251.86H426.541V253H422.301V251.86H423.581V247.72C423.581 246.747 423.394 246.067 423.021 245.68C422.648 245.293 422.174 245.1 421.601 245.1C420.774 245.1 420.141 245.4 419.701 246C419.274 246.587 419.048 247.167 419.021 247.74V251.86H420.661V253H416.061V251.86H417.621V245.24H416.041V244.1H419.021V245.76C419.314 245.227 419.708 244.787 420.201 244.44C420.694 244.093 421.294 243.92 422.001 243.92C422.694 243.92 423.294 244.093 423.801 244.44C424.321 244.787 424.674 245.327 424.861 246.06C425.128 245.433 425.521 244.92 426.041 244.52C426.574 244.12 427.228 243.92 428.001 243.92C428.854 243.92 429.561 244.187 430.121 244.72C430.694 245.253 430.981 246.113 430.981 247.3V251.86H432.541V253ZM434.827 241.8V239.98H436.347V241.8H434.827ZM437.927 253H433.407V251.86H434.967V245.24H433.367V244.1H436.367V251.86H437.927V253ZM443.252 253H438.732V251.86H440.292V240.38H438.712V239.24H441.692V251.86H443.252V253ZM453.431 245.24H452.371L449.231 253L448.031 256.12H449.551V257.26H445.031V256.12H446.691L447.851 252.98L444.611 245.24H443.551V244.1H447.671V245.24H446.111L448.611 251.22H448.731L450.951 245.24H449.511V244.1H453.431V245.24Z" fill="white"/>
<defs>
<linearGradient id="paint0_linear" x1="405.816" y1="104.009" x2="621.612" y2="428.708" gradientUnits="userSpaceOnUse">
<stop stop-color="#F27A54"/>
<stop offset="1" stop-color="#A154F2"/>
</linearGradient>
<linearGradient id="paint1_linear" x1="405.816" y1="104.009" x2="621.612" y2="428.708" gradientUnits="userSpaceOnUse">
<stop stop-color="#F27A54"/>
<stop offset="1" stop-color="#A154F2"/>
</linearGradient>
<linearGradient id="paint2_linear" x1="381.972" y1="104.015" x2="597.768" y2="428.713" gradientUnits="userSpaceOnUse">
<stop stop-color="#F27A54"/>
<stop offset="1" stop-color="#A154F2"/>
</linearGradient>
<linearGradient id="paint3_linear" x1="357.972" y1="104.015" x2="573.768" y2="428.713" gradientUnits="userSpaceOnUse">
<stop stop-color="#F27A54"/>
<stop offset="1" stop-color="#A154F2"/>
</linearGradient>
<linearGradient id="paint4_linear" x1="335.973" y1="104.014" x2="551.769" y2="428.713" gradientUnits="userSpaceOnUse">
<stop stop-color="#F27A54"/>
<stop offset="1" stop-color="#A154F2"/>
</linearGradient>
<linearGradient id="paint5_linear" x1="318.973" y1="104.014" x2="534.769" y2="428.713" gradientUnits="userSpaceOnUse">
<stop stop-color="#F27A54"/>
<stop offset="1" stop-color="#A154F2"/>
</linearGradient>
<linearGradient id="paint6_linear" x1="352.183" y1="378.61" x2="136.388" y2="53.9109" gradientUnits="userSpaceOnUse">
<stop stop-color="#F27A54"/>
<stop offset="1" stop-color="#A154F2"/>
</linearGradient>
<linearGradient id="paint7_linear" x1="352.183" y1="378.61" x2="136.388" y2="53.9109" gradientUnits="userSpaceOnUse">
<stop stop-color="#F27A54"/>
<stop offset="1" stop-color="#A154F2"/>
</linearGradient>
<linearGradient id="paint8_linear" x1="376.027" y1="378.604" x2="160.232" y2="53.9054" gradientUnits="userSpaceOnUse">
<stop stop-color="#F27A54"/>
<stop offset="1" stop-color="#A154F2"/>
</linearGradient>
<linearGradient id="paint9_linear" x1="400.027" y1="378.604" x2="184.232" y2="53.9054" gradientUnits="userSpaceOnUse">
<stop stop-color="#F27A54"/>
<stop offset="1" stop-color="#A154F2"/>
</linearGradient>
<linearGradient id="paint10_linear" x1="422.027" y1="378.604" x2="206.232" y2="53.9054" gradientUnits="userSpaceOnUse">
<stop stop-color="#F27A54"/>
<stop offset="1" stop-color="#A154F2"/>
</linearGradient>
<linearGradient id="paint11_linear" x1="439.027" y1="378.604" x2="223.232" y2="53.9054" gradientUnits="userSpaceOnUse">
<stop stop-color="#F27A54"/>
<stop offset="1" stop-color="#A154F2"/>
</linearGradient>
</defs>
</svg>
