<svg width="350" height="275" viewBox="0 0 350 275" fill="none" xmlns="http://www.w3.org/2000/svg">
<path d="M275 0.00552787C359.76 0.92699 512.236 0.203873 544.075 0.0375482C547.402 0.0201675 550 2.71289 550 6.04004V228.761C550 231.79 548.217 234.285 545.211 234.653C482.554 242.322 -168.038 320.953 197.822 234.064C581.933 142.841 180.017 -1.02707 275 0.00552787Z" fill="url(#paint0_linear)"/>
<path d="M275 0.00552787C359.76 0.92699 512.236 0.203873 544.075 0.0375482C547.402 0.0201675 550 2.71289 550 6.04004V228.761C550 231.79 548.217 234.285 545.211 234.653C482.554 242.322 -168.038 320.953 197.822 234.064C581.933 142.841 180.017 -1.02707 275 0.00552787Z" fill="url(#paint1_linear)"/>
<path d="M251.156 0.011021C335.916 0.932483 488.392 0.209366 520.231 0.0430414C523.558 0.0256606 526.156 2.71838 526.156 6.04554V228.767C526.156 231.795 524.373 234.29 521.367 234.658C458.71 242.327 -191.882 320.958 173.978 234.069C558.089 142.846 156.173 -1.02157 251.156 0.011021Z" fill="url(#paint2_linear)" fill-opacity="0.9"/>
<path d="M227.156 0.011021C311.916 0.932483 464.392 0.209366 496.231 0.0430414C499.558 0.0256606 502.156 2.71838 502.156 6.04554V228.767C502.156 231.795 500.373 234.29 497.367 234.658C434.71 242.327 -215.882 320.958 149.978 234.069C534.089 142.846 132.173 -1.02157 227.156 0.011021Z" fill="url(#paint3_linear)" fill-opacity="0.7"/>
<path d="M205 0.505493C289.75 1.42685 442.324 0.310307 474.214 0.0590455C477.548 0.032781 480.156 2.72847 480.156 6.06206V228.767C480.156 231.795 478.373 234.29 475.367 234.658C412.71 242.327 -237.882 320.958 127.978 234.069C512.089 142.846 110.018 -0.527102 205 0.505493Z" fill="url(#paint4_linear)" fill-opacity="0.6"/>
<path d="M188 1.00549C272.736 1.92669 425.272 0.412754 457.198 0.0753778C460.538 0.0400833 463.156 2.73877 463.156 6.07887V228.767C463.156 231.795 461.373 234.29 458.367 234.658C395.71 242.327 -254.882 320.958 110.978 234.069C495.089 142.846 93.0175 -0.0271025 188 1.00549Z" fill="url(#paint5_linear)" fill-opacity="0.5"/>
<defs>
<linearGradient id="paint0_linear" x1="197.816" y1="0.00913138" x2="413.612" y2="324.708" gradientUnits="userSpaceOnUse">
<stop stop-color="#F27A54"/>
<stop offset="1" stop-color="#A154F2"/>
</linearGradient>
<linearGradient id="paint1_linear" x1="197.816" y1="0.00913138" x2="413.612" y2="324.708" gradientUnits="userSpaceOnUse">
<stop stop-color="#F27A54"/>
<stop offset="1" stop-color="#A154F2"/>
</linearGradient>
<linearGradient id="paint2_linear" x1="173.972" y1="0.0146245" x2="389.768" y2="324.713" gradientUnits="userSpaceOnUse">
<stop stop-color="#F27A54"/>
<stop offset="1" stop-color="#A154F2"/>
</linearGradient>
<linearGradient id="paint3_linear" x1="149.972" y1="0.0146245" x2="365.768" y2="324.713" gradientUnits="userSpaceOnUse">
<stop stop-color="#F27A54"/>
<stop offset="1" stop-color="#A154F2"/>
</linearGradient>
<linearGradient id="paint4_linear" x1="127.973" y1="0.0141912" x2="343.769" y2="324.713" gradientUnits="userSpaceOnUse">
<stop stop-color="#F27A54"/>
<stop offset="1" stop-color="#A154F2"/>
</linearGradient>
<linearGradient id="paint5_linear" x1="110.973" y1="0.0141912" x2="326.769" y2="324.713" gradientUnits="userSpaceOnUse">
<stop stop-color="#F27A54"/>
<stop offset="1" stop-color="#A154F2"/>
</linearGradient>
</defs>
</svg>
