<svg width="550" height="275" viewBox="0 0 550 275" fill="none" xmlns="http://www.w3.org/2000/svg">
<path d="M275 274.613C190.24 273.692 37.7638 274.415 5.92508 274.581C2.59796 274.599 0 271.906 0 268.579V45.8573C0 42.8289 1.78259 40.3341 4.78857 39.9662C67.446 32.297 718.037 -46.3338 352.178 40.5548C-31.9337 131.778 369.982 275.646 275 274.613Z" fill="url(#paint0_linear)"/>
<path d="M275 274.613C190.24 273.692 37.7638 274.415 5.92508 274.581C2.59796 274.599 0 271.906 0 268.579V45.8573C0 42.8289 1.78259 40.3341 4.78857 39.9662C67.446 32.297 718.037 -46.3338 352.178 40.5548C-31.9337 131.778 369.982 275.646 275 274.613Z" fill="url(#paint1_linear)"/>
<path d="M298.844 274.608C214.084 273.686 61.6078 274.409 29.7691 274.576C26.442 274.593 23.844 271.9 23.844 268.573V45.8518C23.844 42.8234 25.6266 40.3286 28.6326 39.9607C91.29 32.2915 741.881 -46.3393 376.022 40.5493C-8.08975 131.773 393.826 275.64 298.844 274.608Z" fill="url(#paint2_linear)" fill-opacity="0.9"/>
<path d="M322.844 274.608C238.084 273.686 85.6078 274.409 53.7691 274.576C50.442 274.593 47.844 271.9 47.844 268.573V45.8518C47.844 42.8234 49.6266 40.3286 52.6326 39.9607C115.29 32.2915 765.881 -46.3393 400.022 40.5493C15.9102 131.773 417.826 275.64 322.844 274.608Z" fill="url(#paint3_linear)" fill-opacity="0.7"/>
<path d="M344.844 274.608C260.084 273.686 107.608 274.409 75.7691 274.576C72.442 274.593 69.844 271.9 69.844 268.573V45.8518C69.844 42.8234 71.6266 40.3286 74.6326 39.9607C137.29 32.2915 787.881 -46.3393 422.022 40.5493C37.9102 131.773 439.826 275.64 344.844 274.608Z" fill="url(#paint4_linear)" fill-opacity="0.6"/>
<path d="M361.844 274.608C277.084 273.686 124.608 274.409 92.7691 274.576C89.442 274.593 86.844 271.9 86.844 268.573V45.8518C86.844 42.8234 88.6266 40.3286 91.6326 39.9607C154.29 32.2915 804.881 -46.3393 439.022 40.5493C54.9102 131.773 456.826 275.64 361.844 274.608Z" fill="url(#paint5_linear)" fill-opacity="0.5"/>
<defs>
<linearGradient id="paint0_linear" x1="352.183" y1="274.61" x2="136.388" y2="-50.0891" gradientUnits="userSpaceOnUse">
<stop stop-color="#F27A54"/>
<stop offset="1" stop-color="#A154F2"/>
</linearGradient>
<linearGradient id="paint1_linear" x1="352.183" y1="274.61" x2="136.388" y2="-50.0891" gradientUnits="userSpaceOnUse">
<stop stop-color="#F27A54"/>
<stop offset="1" stop-color="#A154F2"/>
</linearGradient>
<linearGradient id="paint2_linear" x1="376.027" y1="274.604" x2="160.232" y2="-50.0946" gradientUnits="userSpaceOnUse">
<stop stop-color="#F27A54"/>
<stop offset="1" stop-color="#A154F2"/>
</linearGradient>
<linearGradient id="paint3_linear" x1="400.027" y1="274.604" x2="184.232" y2="-50.0946" gradientUnits="userSpaceOnUse">
<stop stop-color="#F27A54"/>
<stop offset="1" stop-color="#A154F2"/>
</linearGradient>
<linearGradient id="paint4_linear" x1="422.027" y1="274.604" x2="206.232" y2="-50.0946" gradientUnits="userSpaceOnUse">
<stop stop-color="#F27A54"/>
<stop offset="1" stop-color="#A154F2"/>
</linearGradient>
<linearGradient id="paint5_linear" x1="439.027" y1="274.604" x2="223.232" y2="-50.0946" gradientUnits="userSpaceOnUse">
<stop stop-color="#F27A54"/>
<stop offset="1" stop-color="#A154F2"/>
</linearGradient>
</defs>
</svg>
